<svg width="40" height="40" viewBox="0 0 40 40" fill="none" xmlns="http://www.w3.org/2000/svg">
<g clip-path="url(#clip0_54523_25726)">
<path fill-rule="evenodd" clip-rule="evenodd" d="M27.5 30.2493C27.5 29.0073 26.4913 27.9987 25.2493 27.9987H6.74933C5.50733 27.9987 4.49866 29.0073 4.49866 30.2493C4.49866 31.4913 5.50733 32.5 6.74933 32.5H25.2493C26.4913 32.5 27.5 31.4913 27.5 30.2493Z" stroke="#6750A4" stroke-miterlimit="79.8403" stroke-linecap="round" stroke-linejoin="round"/>
<path d="M9 29.9993H23" stroke="#6750A4" stroke-miterlimit="79.8403" stroke-linecap="round" stroke-linejoin="round"/>
<path fill-rule="evenodd" clip-rule="evenodd" d="M15 20.52L15.686 16.7647C15.8073 16.0993 16.5833 15.4987 17.25 15.4987H21.3C23.8447 15.4987 24.0033 21.1407 24 24.1727L23.9993 25.234C23.9993 25.6553 23.6613 25.9987 23.2447 25.9987H15C15 24.1727 15 22.3467 15 20.52Z" stroke="#6750A4" stroke-miterlimit="79.8403" stroke-linecap="round" stroke-linejoin="round"/>
<path d="M19 15.4987V25.4987" stroke="#6750A4" stroke-miterlimit="79.8403" stroke-linecap="round" stroke-linejoin="round"/>
<path d="M19 20.9993H23.5" stroke="#6750A4" stroke-miterlimit="79.8403" stroke-linecap="round" stroke-linejoin="round"/>
<path d="M15 25.9987H4C3.52867 25.9987 3 25.47 3 24.9987V22.4987C3 21.556 4.05733 20.4987 5 20.4987H15" stroke="#6750A4" stroke-miterlimit="79.8403" stroke-linecap="round" stroke-linejoin="round"/>
<path d="M6.5 20.4987V18.9987L7.5 17.9987H10.5L11.5 18.9987V20.4987" stroke="#6750A4" stroke-miterlimit="79.8403" stroke-linecap="round" stroke-linejoin="round"/>
<path d="M9 17.9987V16.4987L8.5 15.9987" stroke="#6750A4" stroke-miterlimit="79.8403" stroke-linecap="round" stroke-linejoin="round"/>
<path d="M17.638 15.2853L17.9953 13.4987C18.4593 11.176 21.1527 9.34534 23.4953 8.99867L34.4953 7.99867C35.0167 7.922 36 7.99867 35.9953 8.49867C36 8.99867 35.072 9.832 34.4953 9.99867L23.5867 12.3853C22.1053 12.846 21.3347 14.2353 21.0867 15.2913" stroke="#6750A4" stroke-miterlimit="79.8403" stroke-linecap="round" stroke-linejoin="round"/>
<path d="M33.5173 10.3353C33.5053 10.542 33.5 10.7627 33.5 10.9987L32.5 22.4987C32.5 22.8713 32.6273 23.4987 33 23.4987C33.6167 23.4987 33.8453 22.2273 34 21.4987L36.918 10.2913C36.9613 10.0353 37 9.76334 37 9.49867C37 8.70401 36.7887 7.99867 36 7.99867C35.8353 7.99867 35.6813 8.00401 35.5367 8.01534" stroke="#6750A4" stroke-miterlimit="79.8403" stroke-linecap="round" stroke-linejoin="round"/>
<path d="M34 21.4987L35.2433 24.7173C35.4067 25.206 35.5 25.5527 35.5 26.242C35.5 26.7953 35.106 26.9987 34 26.9987H28L32.5 21.4987" stroke="#6750A4" stroke-miterlimit="79.8403" stroke-linecap="round" stroke-linejoin="round"/>
<path d="M10.4993 25.9987V27.4987" stroke="#6750A4" stroke-miterlimit="79.8403" stroke-linecap="round" stroke-linejoin="round"/>
<path d="M17.4993 25.9987V27.4987" stroke="#6750A4" stroke-miterlimit="79.8403" stroke-linecap="round" stroke-linejoin="round"/>
<path fill-rule="evenodd" clip-rule="evenodd" d="M6.74933 29.4987C7.16333 29.4987 7.5 29.8347 7.5 30.2487C7.5 30.6627 7.16333 30.9987 6.74933 30.9987C6.33533 30.9987 5.99866 30.6627 5.99866 30.2487C5.99866 29.8347 6.33533 29.4987 6.74933 29.4987Z" stroke="#6750A4" stroke-miterlimit="79.8403" stroke-linecap="round" stroke-linejoin="round"/>
<path fill-rule="evenodd" clip-rule="evenodd" d="M25.2493 29.4987C25.6633 29.4987 26 29.8347 26 30.2487C26 30.6627 25.6633 30.9987 25.2493 30.9987C24.8353 30.9987 24.4987 30.6627 24.4987 30.2487C24.4987 29.8347 24.8353 29.4987 25.2493 29.4987Z" stroke="#6750A4" stroke-miterlimit="79.8403" stroke-linecap="round" stroke-linejoin="round"/>
</g>
<defs>
<clipPath id="clip0_54523_25726">
<rect width="40" height="40" fill="white"/>
</clipPath>
</defs>
</svg>
