<svg width="40" height="40" viewBox="0 0 40 40" fill="none" xmlns="http://www.w3.org/2000/svg">
<g clip-path="url(#clip0_54914_33720)">
<path d="M11.6667 31.6649V8.33157L13.3333 6.33157L15 8.33157L14.9991 31.6649" stroke="#6750A4" stroke-miterlimit="79.8403" stroke-linecap="round" stroke-linejoin="round"/>
<path d="M7 33.6658H19.6667" stroke="#6750A4" stroke-miterlimit="79.8403" stroke-linecap="round" stroke-linejoin="round"/>
<path d="M15 31.6649L11.6667 28.3316L15 24.9982L11.6667 21.6649L15 18.3316L11.6667 14.9982L15 11.6649L11.6667 8.33157H15" stroke="#6750A4" stroke-miterlimit="79.8403" stroke-linecap="round" stroke-linejoin="round"/>
<path fill-rule="evenodd" clip-rule="evenodd" d="M15 14.9982L17.6667 12.3316H33.6667L36.3333 14.9982H15Z" stroke="#6750A4" stroke-miterlimit="79.8403" stroke-linecap="round" stroke-linejoin="round"/>
<path d="M11.6667 12.9982H3.66667V15.6649H11.6667" stroke="#6750A4" stroke-miterlimit="79.8403" stroke-linecap="round" stroke-linejoin="round"/>
<path d="M9 15.6649V12.9982" stroke="#6750A4" stroke-miterlimit="79.8403" stroke-linecap="round" stroke-linejoin="round"/>
<path d="M6.33334 15.6649V12.9982" stroke="#6750A4" stroke-miterlimit="79.8403" stroke-linecap="round" stroke-linejoin="round"/>
<path d="M3.66667 15.6649V19.6649H8.33334V15.6649" stroke="#6750A4" stroke-miterlimit="79.8403" stroke-linecap="round" stroke-linejoin="round"/>
<path d="M3.66667 17.6649H8.33334" stroke="#6750A4" stroke-miterlimit="79.8403" stroke-linecap="round" stroke-linejoin="round"/>
<path d="M27.6667 16.3325H31.6667" stroke="#6750A4" stroke-miterlimit="79.8403" stroke-linecap="round" stroke-linejoin="round"/>
<path d="M29.6667 16.3316V21.6649" stroke="#6750A4" stroke-miterlimit="79.8403" stroke-linecap="round" stroke-linejoin="round"/>
<path fill-rule="evenodd" clip-rule="evenodd" d="M31 22.6364V24.0276C31 24.5636 30.5645 24.9991 30.0285 24.9991H29.3022C28.7662 24.9991 28.3307 24.5636 28.3307 24.0276V22.6364C28.3307 22.1004 28.7662 21.6649 29.3022 21.6649H30.0285C30.5645 21.6649 31 22.1004 31 22.6364Z" stroke="#6750A4" stroke-miterlimit="79.8403" stroke-linecap="round" stroke-linejoin="round"/>
<path d="M29.5876 24.9982C29.5876 25.9511 30.3333 25.9609 30.3333 27.0116C30.3333 27.8436 29.9813 28.3316 29.3333 28.3316C28.7253 28.3316 28.3333 27.68 28.3333 26.9982" stroke="#6750A4" stroke-miterlimit="79.8403" stroke-linecap="round" stroke-linejoin="round"/>
<path d="M10.3333 33.6649V31.6649H16.3333V33.6649" stroke="#6750A4" stroke-miterlimit="79.8403" stroke-linecap="round" stroke-linejoin="round"/>
</g>
<defs>
<clipPath id="clip0_54914_33720">
<rect width="40" height="40" fill="white"/>
</clipPath>
</defs>
</svg>
