<svg width="40" height="40" viewBox="0 0 40 40" fill="none" xmlns="http://www.w3.org/2000/svg">
<g clip-path="url(#clip0_54606_33305)">
<path fill-rule="evenodd" clip-rule="evenodd" d="M33 28.3333C34.472 28.3333 35.6667 29.528 35.6667 31C35.6667 32.472 34.472 33.6667 33 33.6667C31.528 33.6667 30.3333 32.472 30.3333 31C30.3333 29.528 31.528 28.3333 33 28.3333Z" stroke="#6750A4" stroke-miterlimit="79.8403" stroke-linecap="round" stroke-linejoin="round"/>
<path fill-rule="evenodd" clip-rule="evenodd" d="M6.99999 28.3333C8.47199 28.3333 9.66666 29.528 9.66666 31C9.66666 32.472 8.47199 33.6667 6.99999 33.6667C5.52799 33.6667 4.33333 32.472 4.33333 31C4.33333 29.528 5.52799 28.3333 6.99999 28.3333Z" stroke="#6750A4" stroke-miterlimit="79.8403" stroke-linecap="round" stroke-linejoin="round"/>
<path fill-rule="evenodd" clip-rule="evenodd" d="M14.3324 28.3351C15.8044 28.3351 16.9991 29.5289 16.9991 31.0009C16.9991 32.4729 15.8044 33.6667 14.3324 33.6667C12.8604 33.6667 11.6658 32.4729 11.6658 31.0009C11.6658 29.5289 12.8604 28.3351 14.3324 28.3351Z" stroke="#6750A4" stroke-miterlimit="79.8403" stroke-linecap="round" stroke-linejoin="round"/>
<path d="M35.6667 30.9991H39V22.9991C39 20.6062 38.7262 16.3324 36.3333 16.3324H28.3333V30.9991H30.3333" stroke="#6750A4" stroke-miterlimit="79.8403" stroke-linecap="round" stroke-linejoin="round"/>
<path d="M35 28.9991H39" stroke="#6750A4" stroke-miterlimit="79.8403" stroke-linecap="round" stroke-linejoin="round"/>
<path fill-rule="evenodd" clip-rule="evenodd" d="M33.6667 23.6658H37V22.9991C37 22.072 36.9547 20.9307 36.7733 19.9262C36.6827 19.4258 36.568 19.016 36.4382 18.7084C36.3707 18.5493 36.3102 18.4444 36.2658 18.3778L36.2311 18.3324H30.3333V22.3324H31.6667L33.6667 23.6658Z" stroke="#6750A4" stroke-miterlimit="79.8403" stroke-linecap="round" stroke-linejoin="round"/>
<path d="M37.6667 27H39" stroke="#6750A4" stroke-miterlimit="79.8403" stroke-linecap="round" stroke-linejoin="round"/>
<path fill-rule="evenodd" clip-rule="evenodd" d="M33 30.3324C33.3689 30.3324 33.6667 30.632 33.6667 31.0018C33.6667 31.3724 33.3689 31.672 33 31.672C32.6329 31.672 32.3333 31.3724 32.3333 31.0018C32.3333 30.632 32.6329 30.3324 33 30.3324Z" stroke="#6750A4" stroke-miterlimit="79.8403" stroke-linecap="round" stroke-linejoin="round"/>
<path fill-rule="evenodd" clip-rule="evenodd" d="M14.3333 30.3324C14.7022 30.3324 15 30.632 15 31.0018C15 31.3724 14.7022 31.672 14.3333 31.672C13.9662 31.672 13.6667 31.3724 13.6667 31.0018C13.6667 30.632 13.9662 30.3324 14.3333 30.3324Z" stroke="#6750A4" stroke-miterlimit="79.8403" stroke-linecap="round" stroke-linejoin="round"/>
<path fill-rule="evenodd" clip-rule="evenodd" d="M6.99999 30.3262C7.36888 30.3262 7.66666 30.6258 7.66666 30.9956C7.66666 31.3662 7.36888 31.6658 6.99999 31.6658C6.63288 31.6658 6.33333 31.3662 6.33333 30.9956C6.33333 30.6258 6.63288 30.3262 6.99999 30.3262Z" stroke="#6750A4" stroke-miterlimit="79.8403" stroke-linecap="round" stroke-linejoin="round"/>
<path d="M17 30.9991H28.3333" stroke="#6750A4" stroke-miterlimit="79.8403" stroke-linecap="round" stroke-linejoin="round"/>
<path d="M9.66667 30.9991H11.6667" stroke="#6750A4" stroke-miterlimit="79.8403" stroke-linecap="round" stroke-linejoin="round"/>
<path d="M2.33333 28.3324V30.9991H4.33333" stroke="#6750A4" stroke-miterlimit="79.8403" stroke-linecap="round" stroke-linejoin="round"/>
<path fill-rule="evenodd" clip-rule="evenodd" d="M0.334229 23V25.6658H22.3333V23H0.334229Z" stroke="#6750A4" stroke-miterlimit="79.8403" stroke-linecap="round" stroke-linejoin="round"/>
<path fill-rule="evenodd" clip-rule="evenodd" d="M26.3333 20.3316H24.3324V25.6658H26.3333V20.3316Z" stroke="#6750A4" stroke-miterlimit="79.8403" stroke-linecap="round" stroke-linejoin="round"/>
<path d="M22.3333 25.6658H28.3333" stroke="#6750A4" stroke-miterlimit="79.8403" stroke-linecap="round" stroke-linejoin="round"/>
<path d="M7.66667 22.9991V25.6658" stroke="#6750A4" stroke-miterlimit="79.8403" stroke-linecap="round" stroke-linejoin="round"/>
<path d="M15 25.6658V22.9991" stroke="#6750A4" stroke-miterlimit="79.8403" stroke-linecap="round" stroke-linejoin="round"/>
<path d="M0.333328 25.6658V28.3324H28.3333" stroke="#6750A4" stroke-miterlimit="79.8403" stroke-linecap="round" stroke-linejoin="round"/>
<path d="M32.3324 22.3324V18.3324" stroke="#6750A4" stroke-miterlimit="79.8403" stroke-linecap="round" stroke-linejoin="round"/>
<path fill-rule="evenodd" clip-rule="evenodd" d="M10.0133 17.616L9.40533 15.6942L36.3547 7.152C36.8853 6.984 37.4507 7.27822 37.6204 7.80888C37.7876 8.33866 37.4942 8.90577 36.9636 9.07289L10.0133 17.616Z" stroke="#6750A4" stroke-miterlimit="79.8403" stroke-linecap="round" stroke-linejoin="round"/>
<path d="M12.3333 17.1724L13.9689 22.3324" stroke="#6750A4" stroke-miterlimit="79.8403" stroke-linecap="round" stroke-linejoin="round"/>
<path d="M21 14.3324V22.9991" stroke="#6750A4" stroke-miterlimit="79.8403" stroke-linecap="round" stroke-linejoin="round"/>
<path d="M19 14.9991V22.9991" stroke="#6750A4" stroke-miterlimit="79.8403" stroke-linecap="round" stroke-linejoin="round"/>
<path d="M7.66489 15.6089L7.66577 19.0258L5.66666 16.2436V19.6444L3.66578 16.8773V20.2782L1.66578 18.0089V20.5404L0.35022 19.6018L9.39555 16.7351" stroke="#6750A4" stroke-miterlimit="79.8403" stroke-linecap="round" stroke-linejoin="round"/>
</g>
<defs>
<clipPath id="clip0_54606_33305">
<rect width="40" height="40" fill="white"/>
</clipPath>
</defs>
</svg>
