<svg width="40" height="40" viewBox="0 0 40 40" fill="none" xmlns="http://www.w3.org/2000/svg">
<g clip-path="url(#clip0_54523_25705)">
<path fill-rule="evenodd" clip-rule="evenodd" d="M8.75 26C9.854 26 10.75 26.8967 10.75 28C10.75 29.104 9.854 30 8.75 30C7.64667 30 6.75067 29.104 6.75067 28C6.75067 26.8967 7.64667 26 8.75 26Z" stroke="#6750A4" stroke-miterlimit="79.8403" stroke-linecap="round" stroke-linejoin="round"/>
<path fill-rule="evenodd" clip-rule="evenodd" d="M23.7507 24.0007C25.406 24.0007 26.7507 25.3453 26.7507 27.0007C26.7507 28.656 25.406 30.0007 23.7507 30.0007C22.0953 30.0007 20.7507 28.656 20.7507 27.0007C20.7507 25.3453 22.0953 24.0007 23.7507 24.0007Z" stroke="#6750A4" stroke-miterlimit="79.8403" stroke-linecap="round" stroke-linejoin="round"/>
<path d="M19.2507 26H16.2507L8.25067 19.5H6.25067C4.81733 19.5 3.75067 21.5667 3.75067 23V29H5.25067L5.24933 28C5.24933 26.068 6.81867 24.4993 8.75067 24.4993C10.6827 24.4993 12.2513 26.068 12.2513 28L12.2507 29H19.2507L19.2513 27C19.2513 24.5167 21.268 22.5007 23.7507 22.5007L25.2507 22.5" stroke="#6750A4" stroke-miterlimit="79.8403" stroke-linecap="round" stroke-linejoin="round"/>
<path d="M8.25067 19.5V18L9.75067 10" stroke="#6750A4" stroke-miterlimit="79.8403" stroke-linecap="round" stroke-linejoin="round"/>
<path d="M8.75067 10H15.7507C18.682 10 21.1033 12.734 21.7507 15L23.7507 22.5" stroke="#6750A4" stroke-miterlimit="79.8403" stroke-linecap="round" stroke-linejoin="round"/>
<path d="M12.192 22.7033L11.2507 17H12.2507L13.7507 21H15.5007C15.9147 21 16.2513 21.448 16.2513 22C16.2513 22.552 15.9147 23 15.5007 23H12.7507" stroke="#6750A4" stroke-miterlimit="79.8403" stroke-linecap="round" stroke-linejoin="round"/>
<path d="M18.2507 19.5L20.7507 18" stroke="#6750A4" stroke-miterlimit="79.8403" stroke-linecap="round" stroke-linejoin="round"/>
<path d="M19.638 19.012L21.7133 22.4707" stroke="#6750A4" stroke-miterlimit="79.8403" stroke-linecap="round" stroke-linejoin="round"/>
<path d="M25.2507 22.5V10.5H26.7507V26.5" stroke="#6750A4" stroke-miterlimit="79.8403" stroke-linecap="round" stroke-linejoin="round"/>
<path d="M28.2507 20.5V29H36.2507" stroke="#6750A4" stroke-miterlimit="79.8403" stroke-linecap="round" stroke-linejoin="round"/>
<path fill-rule="evenodd" clip-rule="evenodd" d="M8.75333 27.492C9.03067 27.492 9.256 27.718 9.256 27.996C9.256 28.274 9.03067 28.5 8.75333 28.5C8.476 28.5 8.25067 28.274 8.25067 27.996C8.25067 27.718 8.476 27.492 8.75333 27.492Z" fill="#6750A4"/>
<path fill-rule="evenodd" clip-rule="evenodd" d="M23.748 26.5C24.0253 26.5 24.2507 26.726 24.2507 27.004C24.2507 27.282 24.0253 27.508 23.748 27.508C23.4707 27.508 23.2453 27.282 23.2453 27.004C23.2453 26.726 23.4707 26.5 23.748 26.5Z" fill="#6750A4"/>
<path d="M25.2507 22.5H26.7507" stroke="#6750A4" stroke-miterlimit="79.8403" stroke-linecap="round" stroke-linejoin="round"/>
<path d="M15.7507 23V25.5" stroke="#6750A4" stroke-miterlimit="79.8403" stroke-linecap="round" stroke-linejoin="round"/>
</g>
<defs>
<clipPath id="clip0_54523_25705">
<rect width="40" height="40" fill="white"/>
</clipPath>
</defs>
</svg>
