<svg width="40" height="40" viewBox="0 0 40 40" fill="none" xmlns="http://www.w3.org/2000/svg">
<g clip-path="url(#clip0_54523_25788)">
<path fill-rule="evenodd" clip-rule="evenodd" d="M7 16.5V24.9993H13.0013V16.5H7Z" stroke="#6750A4" stroke-miterlimit="79.8403" stroke-linecap="round" stroke-linejoin="round"/>
<path d="M7.46201 19.9993H12.54" stroke="#6750A4" stroke-miterlimit="79.8403" stroke-linecap="round" stroke-linejoin="round"/>
<path d="M23.5013 10.9993V15.9993H19.5V10.9993" stroke="#6750A4" stroke-miterlimit="79.8403" stroke-linecap="round" stroke-linejoin="round"/>
<path d="M18.5013 10.4993H24.5013" stroke="#6750A4" stroke-miterlimit="79.8403" stroke-linecap="round" stroke-linejoin="round"/>
<path d="M21.5 19.9993V21.4993" stroke="#6750A4" stroke-miterlimit="79.8403" stroke-linecap="round" stroke-linejoin="round"/>
<path d="M22.5007 16.4993L22.5013 18.4993C22.5013 19.0513 22.0527 19.4993 21.5007 19.4993C20.9487 19.4993 20.5 19.0513 20.5 18.4993L20.5007 16.4993" stroke="#6750A4" stroke-miterlimit="79.8403" stroke-linecap="round" stroke-linejoin="round"/>
<path fill-rule="evenodd" clip-rule="evenodd" d="M31.5007 10.9993C32.0527 10.9993 32.5013 11.4473 32.5013 11.9993C32.5013 12.5513 32.0527 12.9993 31.5007 12.9993C30.9487 12.9993 30.5 12.5513 30.5 11.9993C30.5 11.4473 30.9487 10.9993 31.5007 10.9993Z" stroke="#6750A4" stroke-miterlimit="79.8403" stroke-linecap="round" stroke-linejoin="round"/>
<path d="M29.0007 14.4993L30.5007 13" stroke="#6750A4" stroke-miterlimit="79.8403" stroke-linecap="round" stroke-linejoin="round"/>
<path fill-rule="evenodd" clip-rule="evenodd" d="M31.5007 17.9993C32.0527 17.9993 32.5013 17.5513 32.5013 16.9993C32.5013 16.4473 32.0527 15.9993 31.5007 15.9993C30.9487 15.9993 30.5 16.4473 30.5 16.9993C30.5 17.5513 30.9487 17.9993 31.5007 17.9993Z" stroke="#6750A4" stroke-miterlimit="79.8403" stroke-linecap="round" stroke-linejoin="round"/>
<path d="M27.5013 14.4993H29.0007L30.5007 15.9987" stroke="#6750A4" stroke-miterlimit="79.8403" stroke-linecap="round" stroke-linejoin="round"/>
<path d="M10.0013 16.4993V12.9993H16.5013V23.4993H32.5013V31.9993H27.0013V28.598C27.0013 27.716 26.2853 27 25.4033 27H14.5987C13.7167 27 13.0007 27.716 13.0007 28.598L13.0013 31.9993H10.0013V24.9993" stroke="#6750A4" stroke-miterlimit="79.8403" stroke-linecap="round" stroke-linejoin="round"/>
<path d="M27.5013 22.9993V8.49933H26.0013V22.9993" stroke="#6750A4" stroke-miterlimit="79.8403" stroke-linecap="round" stroke-linejoin="round"/>
<path d="M25.5013 14.5H23.5013" stroke="#6750A4" stroke-miterlimit="79.8403" stroke-linecap="round" stroke-linejoin="round"/>
</g>
<defs>
<clipPath id="clip0_54523_25788">
<rect width="40" height="40" fill="white"/>
</clipPath>
</defs>
</svg>
