<svg width="40" height="40" viewBox="0 0 40 40" fill="none" xmlns="http://www.w3.org/2000/svg">
<g clip-path="url(#clip0_54569_26070)">
<path fill-rule="evenodd" clip-rule="evenodd" d="M13.25 26C15.872 26 18 28.128 18 30.75C18 33.372 15.872 35.5 13.25 35.5C10.628 35.5 8.5 33.372 8.5 30.75C8.5 28.128 10.628 26 13.25 26Z" stroke="#6750A4" stroke-miterlimit="79.8403" stroke-linecap="round" stroke-linejoin="round"/>
<path fill-rule="evenodd" clip-rule="evenodd" d="M13.25 29C14.216 29 15 29.784 15 30.75C15 31.716 14.216 32.5 13.25 32.5C12.284 32.5 11.5 31.716 11.5 30.75C11.5 29.784 12.284 29 13.25 29Z" stroke="#6750A4" stroke-miterlimit="79.8403" stroke-linecap="round" stroke-linejoin="round"/>
<path d="M9.24133 33.4827H3.862L0.5 32.128V24H23.2393" stroke="#6750A4" stroke-miterlimit="79.8403" stroke-linecap="round" stroke-linejoin="round"/>
<path d="M7 30.5007H0.5" stroke="#6750A4" stroke-miterlimit="79.8403" stroke-linecap="round" stroke-linejoin="round"/>
<path d="M18.172 23.8327L17.5 20.5H24.0347L22.5 27.1667V30.5H19.5" stroke="#6750A4" stroke-miterlimit="79.8403" stroke-linecap="round" stroke-linejoin="round"/>
<path d="M19.5 30.7933V33.4827H22.5V30.7933" stroke="#6750A4" stroke-miterlimit="79.8403" stroke-linecap="round" stroke-linejoin="round"/>
<path fill-rule="evenodd" clip-rule="evenodd" d="M32.9653 24.1407C31.5533 22.2487 30.3647 22.5127 28.7093 22.5127C27.2653 22.5127 26 24.5387 26 26C26 28.5367 26 30.986 26 33.5C26.4513 33.5 27.548 33.5 28 33.5C27.9987 32.814 27.998 31.4433 27.998 30.758C27.998 27.618 30.1187 24.9527 32.9653 24.1407Z" stroke="#6750A4" stroke-miterlimit="79.8403" stroke-linecap="round" stroke-linejoin="round"/>
<path d="M23 26.0007H25.5" stroke="#6750A4" stroke-miterlimit="79.8403" stroke-linecap="round" stroke-linejoin="round"/>
<path d="M22.5 32.0007H25.862" stroke="#6750A4" stroke-miterlimit="79.8403" stroke-linecap="round" stroke-linejoin="round"/>
<path fill-rule="evenodd" clip-rule="evenodd" d="M33.2173 4.5L34.8453 9.072C35.61 11.216 37.7793 12.578 39.5 14L31.5273 13.9987C30.074 13.9987 28.3 13.0753 27.8027 11.682C26.756 8.742 28.5967 6.212 30.7253 5.424L33.2173 4.5Z" stroke="#6750A4" stroke-miterlimit="79.8403" stroke-linecap="round" stroke-linejoin="round"/>
<path d="M36.1093 13.9347C35.884 13.7473 35.6613 13.554 35.4433 13.3533C34.4833 12.4673 33.47 11.3153 32.924 9.78333L31.296 5.212" stroke="#6750A4" stroke-miterlimit="79.8403" stroke-linecap="round" stroke-linejoin="round"/>
<path d="M26.6847 23.5C26.31 22.2253 26 20.966 26 19.676C26 17.2213 27.3253 14.5953 28.8713 13.1293" stroke="#6750A4" stroke-miterlimit="79.8403" stroke-linecap="round" stroke-linejoin="round"/>
<path d="M29.5 22.5C29.5 22.2867 29.5 21.8593 29.5 19.8827C29.5 17.906 30.438 15.534 31.4727 14" stroke="#6750A4" stroke-miterlimit="79.8403" stroke-linecap="round" stroke-linejoin="round"/>
<path d="M28 32.5007H30.0173" stroke="#6750A4" stroke-miterlimit="79.8403" stroke-linecap="round" stroke-linejoin="round"/>
<path d="M28.9827 28.0007H30.5" stroke="#6750A4" stroke-miterlimit="79.8403" stroke-linecap="round" stroke-linejoin="round"/>
<path d="M2.51733 24.0687V30.5" stroke="#6750A4" stroke-miterlimit="79.8403" stroke-linecap="round" stroke-linejoin="round"/>
<path fill-rule="evenodd" clip-rule="evenodd" d="M34.75 26C37.372 26 39.5 28.128 39.5 30.75C39.5 33.372 37.372 35.5 34.75 35.5C32.128 35.5 30 33.372 30 30.75C30 28.128 32.128 26 34.75 26Z" stroke="#6750A4" stroke-miterlimit="79.8403" stroke-linecap="round" stroke-linejoin="round"/>
<path fill-rule="evenodd" clip-rule="evenodd" d="M34.75 29C35.716 29 36.5 29.784 36.5 30.75C36.5 31.716 35.716 32.5 34.75 32.5C33.784 32.5 33 31.716 33 30.75C33 29.784 33.784 29 34.75 29Z" stroke="#6750A4" stroke-miterlimit="79.8403" stroke-linecap="round" stroke-linejoin="round"/>
<path d="M7.00534 30.4873C7.14334 27.1593 9.88801 24.5 13.25 24.5C16.6 24.5 19.3367 27.1393 19.4927 30.4507" stroke="#6750A4" stroke-miterlimit="79.8403" stroke-linecap="round" stroke-linejoin="round"/>
</g>
<defs>
<clipPath id="clip0_54569_26070">
<rect width="40" height="40" fill="white"/>
</clipPath>
</defs>
</svg>
