<svg width="40" height="40" viewBox="0 0 40 40" fill="none" xmlns="http://www.w3.org/2000/svg">
<g clip-path="url(#clip0_54569_26158)">
<path fill-rule="evenodd" clip-rule="evenodd" d="M3.00067 27.5H11.5007L12.5007 29H25.0007L26.0007 28H37.0007C36.2927 30.624 34.6587 33.5 31.77 33.5H11.7187C8.19134 33.5 4.696 30.664 3.00067 27.5Z" stroke="#6750A4" stroke-miterlimit="79.8403" stroke-linecap="round" stroke-linejoin="round"/>
<path d="M19.0007 29V26.5H24.0007V29" stroke="#6750A4" stroke-miterlimit="79.8403" stroke-linecap="round" stroke-linejoin="round"/>
<path d="M14.0007 29V26.5H19.0007" stroke="#6750A4" stroke-miterlimit="79.8403" stroke-linecap="round" stroke-linejoin="round"/>
<path d="M14.0007 26.5V24H19.0007V26.5" stroke="#6750A4" stroke-miterlimit="79.8403" stroke-linecap="round" stroke-linejoin="round"/>
<path fill-rule="evenodd" clip-rule="evenodd" d="M24.0007 18V20.5007H19V18H24.0007Z" stroke="#6750A4" stroke-miterlimit="79.8403" stroke-linecap="round" stroke-linejoin="round"/>
<path d="M32.0007 28V25H30.0007V23.5H26.5007V28" stroke="#6750A4" stroke-miterlimit="79.8403" stroke-linecap="round" stroke-linejoin="round"/>
<path d="M28.0007 23.5V18.5" stroke="#6750A4" stroke-miterlimit="79.8403" stroke-linecap="round" stroke-linejoin="round"/>
<path d="M30.0007 23.5V20.5H31.0007L32.0007 25" stroke="#6750A4" stroke-miterlimit="79.8403" stroke-linecap="round" stroke-linejoin="round"/>
<path d="M10.5007 27V14.5" stroke="#6750A4" stroke-miterlimit="79.8403" stroke-linecap="round" stroke-linejoin="round"/>
<path d="M7.00134 27V14.5" stroke="#6750A4" stroke-miterlimit="79.8403" stroke-linecap="round" stroke-linejoin="round"/>
<path d="M10.5007 14.5L7.00067 18L10.5007 21.5L7.00067 25L9.50067 27.5" stroke="#6750A4" stroke-miterlimit="79.8403" stroke-linecap="round" stroke-linejoin="round"/>
<path fill-rule="evenodd" clip-rule="evenodd" d="M3.00067 14.5H25.0007L22.5007 12H3.00067V14.5Z" stroke="#6750A4" stroke-miterlimit="79.8403" stroke-linecap="round" stroke-linejoin="round"/>
<path d="M9.00067 12V7" stroke="#6750A4" stroke-miterlimit="79.8403" stroke-linecap="round" stroke-linejoin="round"/>
<path d="M3.00067 12L9.00067 6.5L22.5007 12" stroke="#6750A4" stroke-miterlimit="79.8403" stroke-linecap="round" stroke-linejoin="round"/>
<path d="M21.5007 17.5V15" stroke="#6750A4" stroke-miterlimit="79.8403" stroke-linecap="round" stroke-linejoin="round"/>
</g>
<defs>
<clipPath id="clip0_54569_26158">
<rect width="40" height="40" fill="white"/>
</clipPath>
</defs>
</svg>
