<svg width="40" height="40" viewBox="0 0 40 40" fill="none" xmlns="http://www.w3.org/2000/svg">
<g clip-path="url(#clip0_54914_33815)">
<path fill-rule="evenodd" clip-rule="evenodd" d="M11.6667 26.9991C11.6667 25.8951 12.5627 24.9982 13.6667 24.9982L33 24.9973C34.104 24.9973 35 25.8942 35 26.9982C35 28.1022 34.104 28.9991 33 28.9991L13.6667 29C12.5627 29 11.6667 28.1031 11.6667 26.9991Z" stroke="#6750A4" stroke-miterlimit="79.8403" stroke-linecap="round" stroke-linejoin="round"/>
<path d="M13.6667 26.9982H33.0142" stroke="#6750A4" stroke-miterlimit="79.8403" stroke-linecap="round" stroke-linejoin="round"/>
<path d="M9.66666 18.3316V10.9982" stroke="#6750A4" stroke-miterlimit="79.8403" stroke-linecap="round" stroke-linejoin="round"/>
<path d="M8.33334 10.9982H20.3333" stroke="#6750A4" stroke-miterlimit="79.8403" stroke-linecap="round" stroke-linejoin="round"/>
<path d="M19 10.9982V22.3316H13" stroke="#6750A4" stroke-miterlimit="79.8403" stroke-linecap="round" stroke-linejoin="round"/>
<path fill-rule="evenodd" clip-rule="evenodd" d="M6.33244 19.3804V22.6169C6.33244 23.1947 6.80267 23.6649 7.38044 23.6649H11.952C12.5298 23.6649 13 23.1947 13 22.6169V19.3804C13 18.8027 12.5298 18.3324 11.952 18.3324H7.38044C6.80267 18.3324 6.33244 18.8027 6.33244 19.3804Z" stroke="#6750A4" stroke-miterlimit="79.8403" stroke-linecap="round" stroke-linejoin="round"/>
<path d="M11.8231 25.6649H0.333336V28.3316H11.8231" stroke="#6750A4" stroke-miterlimit="79.8403" stroke-linecap="round" stroke-linejoin="round"/>
<path d="M1.66666 25.6649V23.6649H4.33333V25.6649" stroke="#6750A4" stroke-miterlimit="79.8403" stroke-linecap="round" stroke-linejoin="round"/>
<path d="M4.33334 23.6649H7.66667" stroke="#6750A4" stroke-miterlimit="79.8403" stroke-linecap="round" stroke-linejoin="round"/>
<path d="M9.66666 23.6649V25.6649" stroke="#6750A4" stroke-miterlimit="79.8403" stroke-linecap="round" stroke-linejoin="round"/>
<path d="M19 16.3316L25.6667 18.3316C26.6178 18.6169 27 20.0045 27 20.9982V24.9982" stroke="#6750A4" stroke-miterlimit="79.8403" stroke-linecap="round" stroke-linejoin="round"/>
<path d="M35 26.3316H39" stroke="#6750A4" stroke-miterlimit="79.8403" stroke-linecap="round" stroke-linejoin="round"/>
<path d="M38.3333 26.3316V23.6649C38.3333 22.408 36.8809 21.3218 35.6667 20.9982L25.6667 18.3316" stroke="#6750A4" stroke-miterlimit="79.8403" stroke-linecap="round" stroke-linejoin="round"/>
<path d="M23 20.3316H24.3333" stroke="#6750A4" stroke-miterlimit="79.8403" stroke-linecap="round" stroke-linejoin="round"/>
<path d="M23 22.3324H24.3333" stroke="#6750A4" stroke-miterlimit="79.8403" stroke-linecap="round" stroke-linejoin="round"/>
<path d="M23 17.4169V14.3316L23.6667 13.6649" stroke="#6750A4" stroke-miterlimit="79.8403" stroke-linecap="round" stroke-linejoin="round"/>
<path d="M12.3333 14.3316L13.6667 19.6649H16.3333" stroke="#6750A4" stroke-miterlimit="79.8403" stroke-linecap="round" stroke-linejoin="round"/>
<path d="M15.6658 19.6649V22.3316" stroke="#6750A4" stroke-miterlimit="79.8403" stroke-linecap="round" stroke-linejoin="round"/>
</g>
<defs>
<clipPath id="clip0_54914_33815">
<rect width="40" height="40" fill="white"/>
</clipPath>
</defs>
</svg>
