<svg width="40" height="40" viewBox="0 0 40 40" fill="none" xmlns="http://www.w3.org/2000/svg">
<g clip-path="url(#clip0_54914_33766)">
<path fill-rule="evenodd" clip-rule="evenodd" d="M25.6667 25.6631L24.3333 22.9964L29.6667 19.6631L36.3333 21.6631C36.9351 21.8436 37.6667 22.368 37.6667 22.9964V25.6631H25.6667Z" stroke="#6750A4" stroke-miterlimit="79.8403" stroke-linecap="round" stroke-linejoin="round"/>
<path d="M36.2338 25.6631C36.2996 25.9867 36.3342 26.3209 36.3342 26.6631C36.3342 29.4231 34.0933 31.6631 31.3333 31.6631C28.5733 31.6631 26.3324 29.4231 26.3324 26.6631C26.3324 26.3209 26.3662 25.9867 26.432 25.6631" stroke="#6750A4" stroke-miterlimit="79.8403" stroke-linecap="round" stroke-linejoin="round"/>
<path fill-rule="evenodd" clip-rule="evenodd" d="M31.3333 25.6631C31.8853 25.6631 32.3333 26.1111 32.3333 26.6631C32.3333 27.2151 31.8853 27.6631 31.3333 27.6631C30.7813 27.6631 30.3333 27.2151 30.3333 26.6631C30.3333 26.1111 30.7813 25.6631 31.3333 25.6631Z" stroke="#6750A4" stroke-miterlimit="79.8403" stroke-linecap="round" stroke-linejoin="round"/>
<path fill-rule="evenodd" clip-rule="evenodd" d="M13.6649 25.6631L14.9982 22.9964L9.66489 19.6631L2.99822 21.6631C2.39644 21.8436 1.66489 22.368 1.66489 22.9964V25.6631H13.6649Z" stroke="#6750A4" stroke-miterlimit="79.8403" stroke-linecap="round" stroke-linejoin="round"/>
<path d="M3.09777 25.6631C3.032 25.9867 2.99733 26.3209 2.99733 26.6631C2.99733 29.4231 5.23822 31.6631 7.99822 31.6631C10.7582 31.6631 12.9991 29.4231 12.9991 26.6631C12.9991 26.3209 12.9653 25.9867 12.8996 25.6631" stroke="#6750A4" stroke-miterlimit="79.8403" stroke-linecap="round" stroke-linejoin="round"/>
<path fill-rule="evenodd" clip-rule="evenodd" d="M7.99823 25.6631C7.44623 25.6631 6.99823 26.1111 6.99823 26.6631C6.99823 27.2151 7.44623 27.6631 7.99823 27.6631C8.55023 27.6631 8.99823 27.2151 8.99823 26.6631C8.99823 26.1111 8.55023 25.6631 7.99823 25.6631Z" stroke="#6750A4" stroke-miterlimit="79.8403" stroke-linecap="round" stroke-linejoin="round"/>
<path d="M12.3333 20.9964L13 10.9964" stroke="#6750A4" stroke-miterlimit="79.8403" stroke-linecap="round" stroke-linejoin="round"/>
<path fill-rule="evenodd" clip-rule="evenodd" d="M27 8.33066V10.3298H12.3289V8.33066H27Z" stroke="#6750A4" stroke-miterlimit="79.8403" stroke-linecap="round" stroke-linejoin="round"/>
<path d="M12.4604 19.7049L16.3333 20.9964H22.9964L26.8693 19.7049" stroke="#6750A4" stroke-miterlimit="79.8403" stroke-linecap="round" stroke-linejoin="round"/>
<path d="M26.9947 20.9964L26.328 10.9964" stroke="#6750A4" stroke-miterlimit="79.8403" stroke-linecap="round" stroke-linejoin="round"/>
<path d="M16.3333 20.9964V10.3093" stroke="#6750A4" stroke-miterlimit="79.8403" stroke-linecap="round" stroke-linejoin="round"/>
<path d="M22.9964 20.9964V10.3093" stroke="#6750A4" stroke-miterlimit="79.8403" stroke-linecap="round" stroke-linejoin="round"/>
<path d="M15 22.9965V28.9965L13 26.9965" stroke="#6750A4" stroke-miterlimit="79.8403" stroke-linecap="round" stroke-linejoin="round"/>
<path d="M15 27.6631H17V29.6631H24.3333V22.9964" stroke="#6750A4" stroke-miterlimit="79.8403" stroke-linecap="round" stroke-linejoin="round"/>
<path d="M15 23.6631H24.3333" stroke="#6750A4" stroke-miterlimit="79.8403" stroke-linecap="round" stroke-linejoin="round"/>
<path d="M19 25.6631H21.6667" stroke="#6750A4" stroke-miterlimit="79.8403" stroke-linecap="round" stroke-linejoin="round"/>
<path d="M19 27.664H21.6667" stroke="#6750A4" stroke-miterlimit="79.8403" stroke-linecap="round" stroke-linejoin="round"/>
<path d="M8.33334 17.6631V14.9964L7.66667 14.3298" stroke="#6750A4" stroke-miterlimit="79.8403" stroke-linecap="round" stroke-linejoin="round"/>
<path d="M7 20.3298V17.6631H9.66667V19.6631" stroke="#6750A4" stroke-miterlimit="79.8403" stroke-linecap="round" stroke-linejoin="round"/>
</g>
<defs>
<clipPath id="clip0_54914_33766">
<rect width="40" height="40" fill="white"/>
</clipPath>
</defs>
</svg>
