<svg width="40" height="40" viewBox="0 0 40 40" fill="none" xmlns="http://www.w3.org/2000/svg">
<g clip-path="url(#clip0_54523_25748)">
<path d="M20.1207 14.2467C20.0733 14.2147 20.026 14.1827 19.9793 14.15C20.0993 13.6713 20.2513 13.19 20.504 12.752C20.7613 12.3067 21.1107 11.928 21.4727 11.5787L23.1673 12.558C23.812 11.9313 24.6093 11.4613 25.4987 11.2093L25.4993 9.25401C25.9827 9.11534 26.4847 9.00201 26.9993 9.00201C27.5133 9.00201 28.016 9.11534 28.4993 9.25401V11.2093C29.3873 11.4613 30.1853 11.932 30.83 12.5587L32.526 11.5793C32.8873 11.9287 33.2367 12.3073 33.494 12.7527C33.7513 13.198 33.904 13.6893 34.026 14.1773L32.3327 15.1553C32.4413 15.586 32.4993 16.0373 32.4993 16.5013C32.4993 16.9667 32.4413 17.418 32.3327 17.8493L34.026 18.8267C33.904 19.3147 33.7507 19.8067 33.494 20.252C33.2367 20.6973 32.8873 21.0753 32.526 21.4247L30.83 20.446C30.1853 21.0727 29.3873 21.5427 28.4993 21.794V23.7493C28.016 23.888 27.5133 24.0013 26.9993 24.0013C26.4847 24.0013 25.9827 23.888 25.4993 23.7493L25.4987 21.794C25.1493 21.6953 24.8153 21.5633 24.4987 21.4013" stroke="#6750A4" stroke-miterlimit="79.8403" stroke-linecap="round" stroke-linejoin="round"/>
<path fill-rule="evenodd" clip-rule="evenodd" d="M26.9987 14.002C28.378 14.002 29.4987 15.1227 29.4987 16.502C29.4987 17.8813 28.378 19.002 26.9987 19.002C25.6193 19.002 24.4987 17.8813 24.4987 16.502C24.4987 15.1227 25.6193 14.002 26.9987 14.002Z" stroke="#6750A4" stroke-miterlimit="79.8403" stroke-linecap="round" stroke-linejoin="round"/>
<path fill-rule="evenodd" clip-rule="evenodd" d="M14.9987 16.502C17.758 16.502 19.9987 18.7427 19.9987 21.502C19.9987 24.2613 17.758 26.502 14.9987 26.502C12.2393 26.502 9.99867 24.2613 9.99867 21.502C9.99867 18.7427 12.2393 16.502 14.9987 16.502Z" stroke="#6750A4" stroke-miterlimit="79.8403" stroke-linecap="round" stroke-linejoin="round"/>
<path fill-rule="evenodd" clip-rule="evenodd" d="M14.9987 20.002C15.8267 20.002 16.4987 20.674 16.4987 21.502C16.4987 22.33 15.8267 23.002 14.9987 23.002C14.1707 23.002 13.4987 22.33 13.4987 21.502C13.4987 20.674 14.1707 20.002 14.9987 20.002Z" stroke="#6750A4" stroke-miterlimit="79.8403" stroke-linecap="round" stroke-linejoin="round"/>
<path fill-rule="evenodd" clip-rule="evenodd" d="M13.5 30.7487L13.4993 28.8533C12.5413 28.6593 11.6493 28.282 10.8613 27.7607L9.52133 29.1007C9.08133 28.8567 8.64667 28.582 8.282 28.218C7.91933 27.8547 7.644 27.4193 7.4 26.9793L8.74067 25.6387C8.21867 24.8513 7.84133 23.9593 7.64733 23.0007H5.752C5.61333 22.5173 5.5 22.0153 5.5 21.5C5.5 20.9867 5.61333 20.484 5.752 20.0007H7.648C7.84267 19.0433 8.22 18.152 8.742 17.3647L7.4 16.022C7.644 15.582 7.91867 15.1473 8.28267 14.7827C8.646 14.42 9.08133 14.1447 9.52133 13.9007L10.864 15.244C11.6513 14.7227 12.542 14.346 13.4993 14.1513L13.5 12.2527C13.9833 12.114 14.4853 12.0007 15.0007 12.0007C15.514 12.0007 16.0167 12.114 16.5 12.2527V14.1513C17.456 14.3467 18.3467 14.724 19.134 15.2453L20.4787 13.9007C20.9187 14.1447 21.3533 14.4193 21.718 14.7833C22.0807 15.1467 22.356 15.582 22.6 16.022L21.2553 17.3667C21.7767 18.154 22.154 19.0447 22.3487 20.0007H24.248C24.3867 20.484 24.5 20.986 24.5 21.5013C24.5 22.0147 24.3867 22.5173 24.248 23.0007H22.3493C22.1547 23.958 21.778 24.8493 21.2567 25.6367L22.6 26.9793C22.356 27.4193 22.0813 27.854 21.7173 28.2187C21.354 28.5813 20.9187 28.8567 20.4787 29.1007L19.136 27.7587C18.3487 28.2813 17.4573 28.6587 16.5 28.8533V30.7487C16.0167 30.8873 15.5147 31.0007 14.9993 31.0007C14.486 31.0007 13.9833 30.8873 13.5 30.7487Z" stroke="#6750A4" stroke-miterlimit="79.8403" stroke-linecap="round" stroke-linejoin="round"/>
</g>
<defs>
<clipPath id="clip0_54523_25748">
<rect width="40" height="40" fill="white"/>
</clipPath>
</defs>
</svg>
