<svg width="40" height="40" viewBox="0 0 40 40" fill="none" xmlns="http://www.w3.org/2000/svg">
<g clip-path="url(#clip0_54914_33678)">
<path fill-rule="evenodd" clip-rule="evenodd" d="M11.3333 20.3342C14.4613 20.3342 17 22.872 17 26C17 29.1289 14.4613 31.6676 11.3333 31.6676C8.20533 31.6676 5.66667 29.1289 5.66667 26C5.66667 22.872 8.20533 20.3342 11.3333 20.3342Z" stroke="#6750A4" stroke-miterlimit="79.8403" stroke-linecap="round" stroke-linejoin="round"/>
<path fill-rule="evenodd" clip-rule="evenodd" d="M11.3333 24.3342C12.2533 24.3342 13 25.0809 13 26.0009C13 26.9209 12.2533 27.6676 11.3333 27.6676C10.4133 27.6676 9.66667 26.9209 9.66667 26.0009C9.66667 25.0809 10.4133 24.3342 11.3333 24.3342Z" stroke="#6750A4" stroke-miterlimit="79.8403" stroke-linecap="round" stroke-linejoin="round"/>
<path fill-rule="evenodd" clip-rule="evenodd" d="M28 20.3342C31.128 20.3342 33.6667 22.872 33.6667 26C33.6667 29.1289 31.128 31.6676 28 31.6676C24.872 31.6676 22.3333 29.1289 22.3333 26C22.3333 22.872 24.872 20.3342 28 20.3342Z" stroke="#6750A4" stroke-miterlimit="79.8403" stroke-linecap="round" stroke-linejoin="round"/>
<path fill-rule="evenodd" clip-rule="evenodd" d="M28 24.3342C28.92 24.3342 29.6667 25.0809 29.6667 26.0009C29.6667 26.9209 28.92 27.6676 28 27.6676C27.08 27.6676 26.3333 26.9209 26.3333 26.0009C26.3333 25.0809 27.08 24.3342 28 24.3342Z" stroke="#6750A4" stroke-miterlimit="79.8403" stroke-linecap="round" stroke-linejoin="round"/>
<path d="M23 18.3342H38.3333V27.6676H35.6667V22.3342L33 18.3342" stroke="#6750A4" stroke-miterlimit="79.8403" stroke-linecap="round" stroke-linejoin="round"/>
<path fill-rule="evenodd" clip-rule="evenodd" d="M22.3333 20.3342L1 14.3342V13.0009L7.66667 10.3342H23.6667L26.3333 8.33423H38.3333V10.3342H27L25 12.3342L22.3333 20.3342Z" stroke="#6750A4" stroke-miterlimit="79.8403" stroke-linecap="round" stroke-linejoin="round"/>
<path d="M17 10.3342L14.5556 17.6676" stroke="#6750A4" stroke-miterlimit="79.8403" stroke-linecap="round" stroke-linejoin="round"/>
<path d="M7.66667 10.3342L5.88889 15.6676" stroke="#6750A4" stroke-miterlimit="79.8403" stroke-linecap="round" stroke-linejoin="round"/>
<path d="M25.6667 18.3342L28.1209 12.3342H34.1324L36.5858 18.3342" stroke="#6750A4" stroke-miterlimit="79.8403" stroke-linecap="round" stroke-linejoin="round"/>
<path fill-rule="evenodd" clip-rule="evenodd" d="M29.6667 16.3342H33.5947L32.7947 14.3342H29.6667V16.3342Z" stroke="#6750A4" stroke-miterlimit="79.8403" stroke-linecap="round" stroke-linejoin="round"/>
<path d="M17 25.0009H22.3333" stroke="#6750A4" stroke-miterlimit="79.8403" stroke-linecap="round" stroke-linejoin="round"/>
<path d="M33.6667 25.0009H38.3333" stroke="#6750A4" stroke-miterlimit="79.8403" stroke-linecap="round" stroke-linejoin="round"/>
<path d="M35.6667 22.3351H38.3333" stroke="#6750A4" stroke-miterlimit="79.8403" stroke-linecap="round" stroke-linejoin="round"/>
<path d="M7.66667 18.3342H15" stroke="#6750A4" stroke-miterlimit="79.8403" stroke-linecap="round" stroke-linejoin="round"/>
<path d="M7.66578 16.3342V21.6676" stroke="#6750A4" stroke-miterlimit="79.8403" stroke-linecap="round" stroke-linejoin="round"/>
</g>
<defs>
<clipPath id="clip0_54914_33678">
<rect width="40" height="40" fill="white"/>
</clipPath>
</defs>
</svg>
