<svg width="40" height="40" viewBox="0 0 40 40" fill="none" xmlns="http://www.w3.org/2000/svg">
<g clip-path="url(#clip0_54569_26138)">
<path fill-rule="evenodd" clip-rule="evenodd" d="M32.0013 26.5C33.3807 26.5 34.5007 27.6207 34.5007 29.0007C34.5007 30.38 33.3807 31.5 32.0013 31.5C30.6213 31.5 29.5007 30.38 29.5007 29.0007C29.5007 27.6207 30.6213 26.5 32.0013 26.5Z" stroke="#6750A4" stroke-miterlimit="79.8403" stroke-linecap="round" stroke-linejoin="round"/>
<path fill-rule="evenodd" clip-rule="evenodd" d="M7.50134 26.5C8.88067 26.5 10.0007 27.6207 10.0007 29.0007C10.0007 30.38 8.88067 31.5 7.50134 31.5C6.12134 31.5 5.00067 30.38 5.00067 29.0007C5.00067 27.6207 6.12134 26.5 7.50134 26.5Z" stroke="#6750A4" stroke-miterlimit="79.8403" stroke-linecap="round" stroke-linejoin="round"/>
<path d="M3.50067 29.0013C3.50067 26.7933 5.294 25 7.50201 25C9.70867 25 11.5007 26.7933 11.5007 29.0013" stroke="#6750A4" stroke-miterlimit="79.8403" stroke-linecap="round" stroke-linejoin="round"/>
<path d="M11.5007 28H28.0007" stroke="#6750A4" stroke-miterlimit="79.8403" stroke-linecap="round" stroke-linejoin="round"/>
<path d="M28.5 26H10.5007" stroke="#6750A4" stroke-miterlimit="79.8403" stroke-linecap="round" stroke-linejoin="round"/>
<path d="M27.5007 26L27.0007 24.5V13L28.5007 11.5L36.5693 13.2227C37.5987 13.5307 38.062 14.238 38.3253 15.8647L39.5007 23V29.5H36.0007" stroke="#6750A4" stroke-miterlimit="79.8403" stroke-linecap="round" stroke-linejoin="round"/>
<path fill-rule="evenodd" clip-rule="evenodd" d="M36.5007 15.5H29.5007V17.5L30.4153 19.5313L37.3847 20.8753L36.5007 15.5Z" stroke="#6750A4" stroke-miterlimit="79.8403" stroke-linecap="round" stroke-linejoin="round"/>
<path d="M32.0007 16V19.5833" stroke="#6750A4" stroke-miterlimit="79.8403" stroke-linecap="round" stroke-linejoin="round"/>
<path d="M39.5007 26.5H38.0047L38.0007 23.5H39.5007" stroke="#6750A4" stroke-miterlimit="79.8403" stroke-linecap="round" stroke-linejoin="round"/>
<path d="M25.5007 26V10.5H0.500671V26H4.50067" stroke="#6750A4" stroke-miterlimit="79.8403" stroke-linecap="round" stroke-linejoin="round"/>
<path fill-rule="evenodd" clip-rule="evenodd" d="M32.0007 28.5C32.2767 28.5 32.5007 28.724 32.5007 29C32.5007 29.276 32.2767 29.5 32.0007 29.5C31.7247 29.5 31.5007 29.276 31.5007 29C31.5007 28.724 31.7247 28.5 32.0007 28.5Z" fill="#6750A4"/>
<path fill-rule="evenodd" clip-rule="evenodd" d="M7.50067 28.5C7.77667 28.5 8.00067 28.724 8.00067 29C8.00067 29.276 7.77667 29.5 7.50067 29.5C7.22467 29.5 7.00067 29.276 7.00067 29C7.00067 28.724 7.22467 28.5 7.50067 28.5Z" fill="#6750A4"/>
<path d="M36.0007 28.0007H39.5007" stroke="#6750A4" stroke-miterlimit="79.8403" stroke-linecap="round" stroke-linejoin="round"/>
<path d="M35.9913 27.8093C35.918 26.5273 35.352 25 33.5 25H32H30.5C28.5 25 28 26.7813 28 28.1113V29" stroke="#6750A4" stroke-miterlimit="79.8403" stroke-linecap="round" stroke-linejoin="round"/>
</g>
<defs>
<clipPath id="clip0_54569_26138">
<rect width="40" height="40" fill="white"/>
</clipPath>
</defs>
</svg>
