<svg width="207" height="206" viewBox="0 0 207 206" fill="none" xmlns="http://www.w3.org/2000/svg">
<path d="M103.183 114.139C109.435 114.139 114.503 109.07 114.503 102.818C114.503 96.5656 109.435 91.4971 103.183 91.4971C96.9303 91.4971 91.8618 96.5656 91.8618 102.818C91.8618 109.07 96.9303 114.139 103.183 114.139Z" fill="#E9DDFF"/>
<path d="M103.158 144.71C93.3702 144.71 83.9485 141.278 76.2975 134.859C67.6928 127.64 62.4218 117.557 61.4518 106.469C59.6948 86.3573 73.1223 67.3554 92.6898 62.2675C97.2039 61.098 101.808 63.8004 102.978 68.3091C104.153 72.8177 101.447 77.4247 96.9361 78.5997C85.2382 81.641 77.2101 92.9918 78.2594 105.001C78.836 111.597 81.992 117.612 87.1401 121.934C92.2908 126.255 98.745 128.32 105.36 127.741C117.34 126.692 127.122 116.838 128.114 104.818C128.497 100.176 132.582 96.7271 137.216 97.1042C141.858 97.4868 145.312 101.561 144.93 106.206C143.274 126.309 126.893 142.794 106.833 144.551C105.606 144.658 104.379 144.713 103.158 144.713V144.71Z" fill="#E9DDFF"/>
<path d="M111.315 174.833C107.128 174.833 103.5 171.721 102.956 167.461C102.366 162.837 105.636 158.613 110.257 158.025C139.995 154.235 161.243 127.856 158.628 97.9622C157.333 83.152 150.346 69.7327 138.957 60.1744C127.568 50.6188 113.137 46.0665 98.3269 47.3644C68.4798 49.974 46.188 75.4436 47.5734 105.345C47.7893 109.999 44.1906 113.947 39.5371 114.163C34.8864 114.406 30.9352 110.78 30.7193 106.127C28.9104 67.1532 57.9624 33.956 96.8541 30.5541C116.157 28.8572 134.959 34.7949 149.802 47.2497C164.645 59.7044 173.747 77.1897 175.436 96.4921C178.843 135.444 151.149 169.822 112.388 174.759C112.025 174.806 111.667 174.828 111.312 174.828L111.315 174.833Z" fill="#E9DDFF"/>
<path d="M103.106 206C50.2403 206.005 5.08839 165.444 0.396681 111.811C-4.56008 55.1357 37.515 4.9942 94.1872 0.0319751C98.8352 -0.369703 102.92 3.05959 103.327 7.69938C103.735 12.3392 100.3 16.4325 95.66 16.8396C48.251 20.9903 13.0591 62.9315 17.2071 110.338C21.355 157.747 63.2771 192.933 110.705 188.793C158.111 184.645 193.306 142.702 189.158 95.2953C188.751 90.6555 192.186 86.5622 196.828 86.1551C201.446 85.7534 205.561 89.1827 205.968 93.8252C210.928 150.5 168.853 200.644 112.175 205.601C109.134 205.866 106.104 205.997 103.109 205.997L103.106 206Z" fill="#E9DDFF"/>
</svg>
