<svg width="198" height="35" viewBox="0 0 198 35" fill="none" xmlns="http://www.w3.org/2000/svg">
<path d="M26.6737 0.243132C25.2151 0.243132 24.0304 1.52956 24.0304 3.10823V25.9532L8.60646 2.26539C7.46356 0.509287 5.51697 -0.195238 3.64083 0.475369C1.79079 1.13293 0.595703 2.93339 0.595703 5.05742V30.9371C0.595703 32.5158 1.78036 33.8022 3.23899 33.8022C4.69763 33.8022 5.88489 32.5158 5.88489 30.9371V8.02165L21.3089 31.7095C22.4492 33.4656 24.3957 34.1675 26.2745 33.4969C28.1245 32.8393 29.3196 31.0415 29.3196 28.9175V3.11082C29.3196 1.53216 28.135 0.245743 26.6763 0.245743L26.6737 0.243132Z" fill="#E9DDFF"/>
<path d="M95.3392 28.0694H77.833L96.4143 8.53044C97.7085 7.16835 98.1156 5.10957 97.4528 3.28562C96.7796 1.43558 95.1722 0.240479 93.3509 0.240479H75.7351C74.279 0.240479 73.0918 1.52691 73.0918 3.10557C73.0918 4.68424 74.2764 5.97065 75.7351 5.97065H91.253L72.6717 25.507C71.38 26.8665 70.973 28.9253 71.6331 30.7492C72.3011 32.6019 73.9137 33.7943 75.7351 33.7943H95.3366C96.7927 33.7943 97.9799 32.5079 97.9799 30.9293C97.9799 29.3506 96.7953 28.0668 95.3366 28.0668L95.3392 28.0694Z" fill="#E9DDFF"/>
<path d="M105.829 0.243134C104.37 0.243134 103.186 1.52956 103.186 3.10823V30.9345C103.186 32.5132 104.37 33.7996 105.829 33.7996C107.287 33.7996 108.472 32.5132 108.472 30.9345V3.11083C108.472 1.53216 107.287 0.245745 105.829 0.245745V0.243134Z" fill="#E9DDFF"/>
<path d="M127.881 0.243134C126.422 0.243134 125.237 1.52956 125.237 3.10823V14.1563H114.056C112.598 14.1563 111.413 15.4427 111.413 17.0214C111.413 18.6 112.598 19.8865 114.056 19.8865H125.237V30.9345C125.237 32.5132 126.422 33.7996 127.881 33.7996C129.339 33.7996 130.524 32.5132 130.524 30.9345V3.11083C130.524 1.53216 129.339 0.245745 127.881 0.245745V0.243134Z" fill="#E9DDFF"/>
<path d="M195.124 0.243099C193.665 0.243099 192.481 1.52953 192.481 3.10819V25.9532L177.057 2.26536C175.914 0.509254 173.967 -0.192659 172.091 0.477948C170.238 1.13551 169.046 2.93597 169.046 5.06V30.9371C169.046 32.5157 170.231 33.8022 171.689 33.8022C173.148 33.8022 174.335 32.5157 174.335 30.9371V8.02162L189.759 31.7095C190.899 33.4656 192.846 34.1675 194.725 33.4969C196.575 32.8393 197.77 31.0415 197.77 28.9174V3.11079C197.77 1.53212 196.585 0.245711 195.127 0.245711L195.124 0.243099Z" fill="#E9DDFF"/>
<path d="M62.3699 3.98233C58.889 1.05984 54.487 -0.328343 49.9493 0.0656712C49.203 0.130905 48.5246 0.483172 48.0418 1.06245C47.5617 1.63651 47.3347 2.36192 47.3973 3.10559C47.533 4.64251 48.8899 5.78802 50.4346 5.65233C53.4798 5.38618 56.4257 6.31772 58.7663 8.27736C61.1017 10.237 62.5343 12.9873 62.7978 16.0246C63.064 19.0619 62.1324 22.0183 60.1728 24.3563C58.2105 26.6917 55.4603 28.1216 52.423 28.3877C49.3883 28.6591 46.4319 27.7223 44.0939 25.7627C41.7585 23.8031 40.3259 21.0528 40.0598 18.0155C39.9215 16.4551 38.5881 15.3357 37.0225 15.4662C35.5638 15.594 34.4653 16.7943 34.4653 18.2556C34.4653 18.3391 34.4653 18.42 34.4757 18.5009C34.8724 23.0307 37.0068 27.1326 40.4903 30.0551C43.5511 32.6253 47.426 34.037 51.4027 34.037C51.9037 34.037 52.4125 34.0161 52.9135 33.9692C57.4434 33.5725 61.5453 31.4381 64.4678 27.9546C67.3929 24.4711 68.7811 20.0586 68.3845 15.5314C67.9878 11.0015 65.8534 6.8996 62.3699 3.97711V3.98233Z" fill="#E9DDFF"/>
<path d="M154.979 0.423157H144.591C140.523 0.423157 137.214 3.73184 137.214 7.79984V31.1693C137.214 32.6149 138.386 33.7865 139.832 33.7865C141.277 33.7865 142.449 32.6149 142.449 31.1693V7.79984C142.449 6.6178 143.409 5.65755 144.591 5.65755H154.979C156.161 5.65755 157.121 6.6178 157.121 7.79984V14.4903H148.92C147.474 14.4903 146.303 15.6619 146.303 17.1074C146.303 18.553 147.474 19.7247 148.92 19.7247H157.121V31.1719C157.121 32.6175 158.293 33.7891 159.738 33.7891C161.184 33.7891 162.356 32.6175 162.356 31.1719V7.80245C162.356 3.73445 159.047 0.425769 154.979 0.425769H154.984L154.979 0.423157Z" fill="#E9DDFF"/>
<path d="M51.862 21.6347C54.4113 21.4129 56.3031 19.1558 56.0813 16.6065C55.8595 14.0571 53.5946 12.1575 51.0531 12.3871C48.5037 12.6089 46.6119 14.866 46.8337 17.4154C47.0451 19.8264 49.0752 21.653 51.4523 21.653C51.5854 21.653 51.7237 21.6478 51.8594 21.6347H51.862Z" fill="#E9DDFF"/>
</svg>
